<svg xmlns="http://www.w3.org/2000/svg" xml:space="preserve" width="256" height="256"><rect width="100%" height="100%" fill="#0073cf"/>
    <path fill="#fff"
          d="M224.56 24.062H22.063V226.56h106.372a68.04 68.04 0 0 1-15.248-43.03 68.14 68.14 0 0 1 22.163-50.382L92.937 90.745 42.312 141.37V44.312h161.999v74.763a68.3 68.3 0 0 1 20.25 11.36Z"/>
    <path fill="#fff"
          d="M163.487 57.062c-15.377 0-27.843 12.466-27.843 27.844s12.466 27.843 27.843 27.843 27.844-12.465 27.844-27.843-12.466-27.844-27.844-27.844m16.747 73.406c-22.362.007-42.234 14.26-49.408 35.44-7.176 21.178-.06 44.575 17.693 58.172s42.195 14.372 60.774 1.927l19.996 20.027 14.327-14.307-20.017-20.047a52.183 52.183 0 0 0-43.365-81.212M148.3 182.652c0-17.637 14.297-31.934 31.934-31.934s31.934 14.297 31.934 31.934c0 17.636-14.297 31.934-31.934 31.934S148.3 200.288 148.3 182.652"/></svg>